<svg xmlns="http://www.w3.org/2000/svg" viewBox="0 0 928.53 635.21"><circle cx="382.12" cy="233" r="233" fill="#e0e0e0"/><path d="M796.9,562.34c8.35-16.2,3.81-36.64-6.58-51.61s-25.74-25.63-40.75-36L728.7,460.39l10,50c3.37,16.91,7.51,35.18,20.72,46.27a39.07,39.07,0,0,0,37.72,6.65" fill="#e0e0e0"/><path d="M795.33,623.92a1.5,1.5,0,0,1-1.84,1.05,1.55,1.55,0,0,1-1-1.84c1.16-8.47,2.31-17,2.86-25.49.9-14.12.06-28.61-5.16-41.9a60.71,60.71,0,0,0-24-29c-1.63-1-.13-3.63,1.51-2.59A63.59,63.59,0,0,1,784,539c8.58,11.07,12.8,24.56,14.11,38.37,1.49,15.55-.69,31.14-2.8,46.52Z" fill="#f5f5f5"/><path d="M655.13,602.3c-.56-10.37-8.68-19.11-18.11-23.48s-20-5.18-30.4-5.94l-14.41-1,19.33,21.73c6.53,7.34,13.84,15.13,23.53,16.78a22.25,22.25,0,0,0,20.46-7.61" fill="#e0e0e0"/><path d="M672.11,633a.86.86,0,0,1-.6,1.05.9.9,0,0,1-1-.61c-1.87-4.5-3.75-9-5.94-13.36-3.62-7.2-8.21-14.08-14.61-19.1a34.51,34.51,0,0,0-20.15-7.32c-1.1,0-1.1-1.75,0-1.71a36.22,36.22,0,0,1,12.33,2.57c7.4,3,13.36,8.39,18,14.8,5.21,7.22,8.64,15.51,12,23.68Z" fill="#f5f5f5"/><path d="M774.41,596.2C772.07,583,760.3,573,747.54,568.91S721,565.38,707.63,566l-18.63.89,28.15,24.86c9.52,8.4,20.1,17.25,32.78,17.86A28.74,28.74,0,0,0,775,596.7" fill="#e0e0e0"/><path d="M798.56,634c-2.95-5.21-5.89-10.43-9.18-15.44-5.37-8.17-11.71-15.88-19.85-21.42a44.64,44.64,0,0,0-28.89-7.64c-1.92.16-2.4-2.8-.48-3a48.21,48.21,0,0,1,18.11,1.87c21.07,6.39,32.86,26.39,43,44.38C802.25,634.45,799.5,635.66,798.56,634Z" fill="#f5f5f5"/><path d="M366.87,328.36a186.56,186.56,0,0,0-64.59,84.23C294.61,432.74,290,455,275.55,471c-15.2,16.77-38.29,23.34-59.87,30.16S171.22,517,159.31,536.26c-7,11.29-9.35,24.87-15.44,36.68-12.19,23.63-38.31,37.51-64.56,41.69s-53,.1-79.31-4c17.73,0,30.59-18.73,31.55-36.43s-6.4-34.62-12.07-51.41S9.85,487.09,17.24,471c7.78-17,27-28,30.58-46.29,2.79-14.32-5-28.32-11.74-41.24s-13-28.25-7.21-41.65c60.94,35.44,138.85,40,203.49,11.85C253.51,344.44,273.25,332,295,324.4s47-9.83,67.16,1.28" fill="#03a9f4"/><path d="M336.94,241.24A20.78,20.78,0,0,0,318,240c-6,2.65-10.16,8.37-10.58,14.43-.18,2.52.16,5.33-1.59,7.28-2.31,2.59-7.2,2.34-9.24,5.11-1.44,2-.8,4.65.32,6.79s2.67,4.18,3,6.54c.37,2.94-1.33,5.79-3.4,8.07s-4.58,4.23-6.36,6.71-2.71,5.76-1.28,8.41a8.76,8.76,0,0,0,5.82,3.91,28.24,28.24,0,0,0,7.4.41l75-2.36a18.4,18.4,0,0,0,5.42-.72,5.5,5.5,0,0,0,3.7-3.45c.79-3.11-2.57-5.62-5.11-7.81a8.86,8.86,0,0,1-2.85-3.75,3.77,3.77,0,0,1,1.16-4.22c.72-.53,1.64-.76,2.38-1.26,2.23-1.51,1.86-4.85.07-6.79s-4.5-2.91-7-4.06-5-2.77-5.72-5.23c-.94-3.18,1.47-6.29,2.53-9.44,2.33-7-2.59-14.82-9.81-17.89s-15.93-2-23,1.31Z" fill="#212121"/><polygon points="372.53 576.81 389.86 571.6 397.88 618.57 386.14 622.1 372.53 576.81" fill="#ffb8b8"/><path d="M382,619.17l23.13-6.95h0a15.38,15.38,0,0,1,19.16,10.31l.14.48-37.85,11.37Z" fill="#212121"/><polygon points="275.34 575.21 293.44 575.21 287.6 622.5 275.34 622.5 275.34 575.21" fill="#ffb8b8"/><path d="M272.22,618.49h24.14a15.39,15.39,0,0,1,15.39,15.39v.5H272.22Z" fill="#212121"/><path d="M292.17,586.73l-15.89-.7a4.49,4.49,0,0,1-4.29-4.17c-6.36-88-9.25-169,24.89-193.8a4.56,4.56,0,0,1,3.7-.77l51.84,12a4.53,4.53,0,0,1,3.37,3.39l38.65,171a4.5,4.5,0,0,1-3,5.26l-17,5.68a4.51,4.51,0,0,1-5.58-2.55L321.7,468.6a3.5,3.5,0,0,0-6.69.79L296.8,582.94a4.5,4.5,0,0,1-4.44,3.79Z" fill="#212121"/><circle cx="335.99" cy="282.47" r="24.56" fill="#ffb8b8"/><path d="M299.35,391.69l-.27-.35.31-.31c11.16-11.16,8.21-31.46,7.89-33.41-8.45-8.57-4.14-17.7-3.53-18.87a23.78,23.78,0,0,1,22.43-23.61l23.39-1.31a23,23,0,0,1,2.35,0,23.77,23.77,0,0,1,22.74,24.76l-.42,9.91-22,57.08-.07.19-.18.08a39.87,39.87,0,0,1-17,3.94C313.86,409.76,299.53,391.92,299.35,391.69Z" fill="#424242"/><path d="M302.09,414.07a10.11,10.11,0,0,0,9.14-17.88l-19.36-26-18.41,2.39,23.36,27a9.7,9.7,0,0,0-.75,1.6,10,10,0,0,0,6,12.88Z" fill="#ffb8b8"/><path d="M283.84,391.33l-18-25a18.4,18.4,0,0,1-1.52-2.47,19.19,19.19,0,0,1,8.32-25.82l36.46-18.68a14.59,14.59,0,0,1,3.57-1.26,14.24,14.24,0,0,1,16.86,11h0a14.32,14.32,0,0,1-8.11,15.91l-24,10.78a4.83,4.83,0,0,0-.64.33,6.27,6.27,0,0,0-2.19,8.6l8.37,14.05a4.48,4.48,0,0,1-1.4,6.06L290,392.46a4.53,4.53,0,0,1-2.47.74A4.47,4.47,0,0,1,283.84,391.33Z" fill="#424242"/><path d="M361.34,281.28c4.14-2.07,6.27-7.07,5.85-11.67s-3-8.79-6.27-12.07a31.65,31.65,0,0,0-52.69,13c-1.13,3.66-1.55,7.78.16,11.21s6.09,5.7,9.54,4,4.67-6.55,8.1-8.54c3.1-1.79,7-.71,10.56-1.11a13,13,0,0,0,11.14-13.24c-.81,7.74,5.63,15.49,13.39,16.11Z" fill="#212121"/><path d="M418.26,210.94a10.11,10.11,0,0,1,11.65,16.36l-15.34,28.59-18.57.32,19.16-30.16a10.25,10.25,0,0,1-1-1.48,10.07,10.07,0,0,1,4.08-13.63Z" fill="#ffb8b8"/><path d="M407.4,229.7a5.05,5.05,0,0,1,.94.19l16.17,5.2a3.89,3.89,0,0,1,.53.21,4.5,4.5,0,0,1,2.17,6L377.35,347.81a14.26,14.26,0,0,1-17,7.57h0a14.18,14.18,0,0,1-8.12-20.79l25.87-43.86,24.67-58.31A4.48,4.48,0,0,1,407.4,229.7Z" fill="#424242"/><path d="M170.53,634.21a1,1,0,0,1,1-1h756a1,1,0,0,1,0,2h-756A1,1,0,0,1,170.53,634.21Z" fill="#f5f5f5"/><path d="M331.67,107.21a1,1,0,0,1,1,1v82a1,1,0,0,1-2,0v-82A1,1,0,0,1,331.67,107.21Z" fill="#bdbdbd"/><path d="M243.84,177.77a1,1,0,0,1,0-1.41,1,1,0,0,1,1.42,0l28.28,28.29a1,1,0,1,1-1.41,1.41l-28.29-28.28Z" fill="#bdbdbd"/><path d="M419.49,177.78h0a1,1,0,0,0-1.42-1.41l-28.29,28.29a1,1,0,0,0,0,1.41,1,1,0,0,0,1.42,0l28.28-28.28Z" fill="#bdbdbd"/></svg>