<svg xmlns="http://www.w3.org/2000/svg" viewBox="0 0 830.57 711.73"><polygon points="68.35 169.89 455 169.89 455 296.82 440.35 296.82 440.35 330.02 407.16 296.82 68.35 296.82 68.35 169.89" fill="#f5f5f5"/><rect x="79.09" y="182.25" width="365.17" height="101.55" fill="#fff"/><rect x="108.45" y="211.9" width="175.82" height="5.34" fill="#03a9f4"/><rect x="108.45" y="230.36" width="306.44" height="5.34" fill="#f5f5f5"/><rect x="108.45" y="248.82" width="306.14" height="5.34" fill="#f5f5f5"/><polygon points="386.65 339.79 0 339.79 0 466.72 14.65 466.72 14.65 499.91 47.84 466.72 386.65 466.72 386.65 339.79" fill="#f5f5f5"/><rect x="10.74" y="352.15" width="365.17" height="101.55" fill="#fff"/><rect x="43.03" y="382.77" width="175.82" height="5.34" fill="#03a9f4"/><rect x="43.03" y="401.23" width="306.44" height="5.34" fill="#f5f5f5"/><rect x="43.03" y="419.69" width="306.14" height="5.34" fill="#f5f5f5"/><polygon points="386.65 0 0 0 0 126.93 14.65 126.93 14.65 160.13 47.84 126.93 386.65 126.93 386.65 0" fill="#f5f5f5"/><rect x="10.74" y="12.36" width="365.17" height="101.55" fill="#fff"/><rect x="43.03" y="42.98" width="175.82" height="5.34" fill="#03a9f4"/><rect x="43.03" y="61.44" width="306.44" height="5.34" fill="#f5f5f5"/><rect x="43.03" y="79.9" width="306.14" height="5.34" fill="#f5f5f5"/><polygon points="679.31 695.51 663.4 695.51 655.83 634.13 679.32 634.13 679.31 695.51" fill="#ffb8b8"/><path d="M683.37,710.94H632.06v-.65a20,20,0,0,1,20-20H683.4Z" fill="#212121"/><polygon points="656.94 649.36 642.13 655.19 612.61 600.84 634.46 592.24 656.94 649.36" fill="#ffb8b8"/><path d="M666.36,662.23,618.62,681l-.24-.61a20,20,0,0,1,11.27-25.9h0L658.81,643Z" fill="#212121"/><path d="M652.09,675.56l5.07-186.22-22.55,79.83,16.29,55.4-27,23-27.55-87.9-.05-.16,27.38-144.75,81-3.91h.57l.1.57c.08.48,7.73,48.54,1.29,83.3s-21.9,181.49-22.06,183l-.06.63Z" fill="#212121"/><path d="M627.85,426.34l-.46-.18,15-137.88.44-.11c15.28-3.82,35.86-3.49,46.77-2.95a7.21,7.21,0,0,1,6.74,6.09l18.07,119-.14.21c-12.5,17.84-31.59,22.7-48.65,22.7A115.34,115.34,0,0,1,627.85,426.34Z" fill="#01579b"/><path d="M699.43,466.63l-.55-.05-9.6-181.72,29.17,6.59A13.18,13.18,0,0,1,728.58,306l-3.78,30.2,1.29,53.14c.91,3.26,15.68,57.34,7.47,71.42a6.56,6.56,0,0,1-4.06,3.3,102.09,102.09,0,0,1-24.06,2.81C701.76,466.83,699.48,466.63,699.43,466.63Z" fill="#424242"/><path d="M613.52,467.86a10.35,10.35,0,0,1-5.78-6.87c-1.9-7.65,4.52-17.27,5.45-18.61L621,368.65l-11.6-68.12a8.68,8.68,0,0,1,7.11-10l.49-.07,32.88-3.66-1.67,70.07c14.12,47.7-16.62,116.49-16.93,117.18l-.17.38h-.42C630.52,474.42,626.49,474.34,613.52,467.86Z" fill="#424242"/><circle cx="665.8" cy="240.91" r="31.88" fill="#ffb8b8"/><path d="M702.31,433.74a12.16,12.16,0,0,1,10-14h0a11.8,11.8,0,0,1,2.14-.16l11-25.53L742.69,397,726.6,432.84a12.24,12.24,0,0,1-24.29.9Z" fill="#ffb8b8"/><path d="M717.85,410.35,727,355.67l-15.57-25.94,4-37,.88-.22a13.26,13.26,0,0,1,15.11,7.11l25.43,53.06.1.22-18.47,72.55Z" fill="#424242"/><path d="M686.7,266.62c.73.21,3.79-3.24,7.14-7.39a38.49,38.49,0,0,0,8-31.25c-.05-.24-.1-.48-.14-.7-1.11-5.28-6.15-10.14-11.43-9,.4-4.68-2.75-9.09-6.74-11.56s-8.73-3.38-13.34-4.25c-5.26-1-10.59-2-15.94-1.66a31.14,31.14,0,0,0-14.53,4.65,30.68,30.68,0,0,0-12.89,33.15c6.74-7.61,14.7-16,26.17-12.61a20.89,20.89,0,0,1,7.16,3.74c7,5.49,10.51,13.58,13.91,21.49,1.7-4.33,8-6,11.58-3a10,10,0,0,1,3.16,8,29.73,29.73,0,0,1-2,8.67" fill="#212121"/><path d="M682.59,385.73h-1.5v-5.9a6.62,6.62,0,0,0-6.6-6.6h-18.8a6.59,6.59,0,0,0-6.6,6.58v40.82a6.62,6.62,0,0,0,6.6,6.6h18.8a6.62,6.62,0,0,0,6.6-6.6v-27.9h1.5Z" fill="#212121"/><circle cx="665.59" cy="392.73" r="4" fill="#fff"/><path d="M668.85,408.67a12.16,12.16,0,0,0-16.2-5.8h0a13.14,13.14,0,0,0-1.85,1.08L627.21,389.2l-12.46,12.14,33.59,20.37a12.24,12.24,0,0,0,20.51-13Z" fill="#ffb8b8"/><path d="M584.52,380.56l21.57-81.51a8.74,8.74,0,0,1,9.95-6.32l7.42,1.35,7.9,43.47L615.29,374.2l29.07,17.45-4.08,32.72Z" fill="#424242"/><path d="M829.57,711.73h-381a1,1,0,1,1,0-2h381a1,1,0,1,1,0,2Z" fill="#424242"/></svg>